<svg width="34" height="36" viewBox="0 0 34 36" fill="none" xmlns="http://www.w3.org/2000/svg">
<g filter="url(#filter0_d)">
<path d="M14.5 20C15.1875 20 15.75 19.4375 15.75 18.75V11.25C15.75 10.5625 15.1875 10 14.5 10C13.8125 10 13.25 10.5625 13.25 11.25V18.75C13.25 19.4375 13.8125 20 14.5 20ZM17 2.5C10.1 2.5 4.5 8.1 4.5 15C4.5 21.9 10.1 27.5 17 27.5C23.9 27.5 29.5 21.9 29.5 15C29.5 8.1 23.9 2.5 17 2.5ZM17 25C11.4875 25 7 20.5125 7 15C7 9.4875 11.4875 5 17 5C22.5125 5 27 9.4875 27 15C27 20.5125 22.5125 25 17 25ZM19.5 20C20.1875 20 20.75 19.4375 20.75 18.75V11.25C20.75 10.5625 20.1875 10 19.5 10C18.8125 10 18.25 10.5625 18.25 11.25V18.75C18.25 19.4375 18.8125 20 19.5 20Z" fill="#FAFAFA"/>
</g>
<defs>
<filter id="filter0_d" x="-2" y="0" width="38" height="38" filterUnits="userSpaceOnUse" color-interpolation-filters="sRGB">
<feFlood flood-opacity="0" result="BackgroundImageFix"/>
<feColorMatrix in="SourceAlpha" type="matrix" values="0 0 0 0 0 0 0 0 0 0 0 0 0 0 0 0 0 0 127 0"/>
<feOffset dy="4"/>
<feGaussianBlur stdDeviation="2"/>
<feColorMatrix type="matrix" values="0 0 0 0 0 0 0 0 0 0 0 0 0 0 0 0 0 0 0.25 0"/>
<feBlend mode="normal" in2="BackgroundImageFix" result="effect1_dropShadow"/>
<feBlend mode="normal" in="SourceGraphic" in2="effect1_dropShadow" result="shape"/>
</filter>
</defs>
</svg>
