<svg width="24" height="24" viewBox="0 0 24 24" fill="none" xmlns="http://www.w3.org/2000/svg">
<path d="M8 19H6C6 15.6863 8.68629 13 12 13C15.3137 13 18 15.6863 18 19H16C16 16.7909 14.2091 15 12 15C9.79086 15 8 16.7909 8 19ZM12 12C9.79086 12 8 10.2091 8 8C8 5.79086 9.79086 4 12 4C14.2091 4 16 5.79086 16 8C15.9972 10.208 14.208 11.9972 12 12ZM12 6C10.9074 6.00111 10.0179 6.87885 10.0022 7.97134C9.98658 9.06383 10.8506 9.9667 11.9427 9.99912C13.0348 10.0315 13.9508 9.1815 14 8.09V8.49V8C14 6.89543 13.1046 6 12 6Z" fill="#2E3A59"/>
</svg>
